<svg width="53" height="53" viewBox="0 0 53 53" fill="none" xmlns="http://www.w3.org/2000/svg">
<g clip-path="url(#clip0_1013_672)">
<path d="M13.9006 20.65C18.6298 16.041 23.339 11.4273 28.0179 6.76392C29.3733 5.44207 27.7682 4.20853 26.4097 3.88033C24.6515 3.4556 21.9894 3.44684 20.5644 4.79417C15.7353 9.37896 10.9462 13.9734 6.17223 18.5927C4.76237 19.9648 6.47763 21.2673 7.83619 21.5954C9.63429 22.0298 12.4611 22.0572 13.9006 20.65V20.65Z" fill="#0078FF"/>
<path d="M21.6958 31.0122C27.7189 29.8876 33.7268 28.7381 39.7396 27.5687C40.8495 27.3505 43.5249 26.5167 42.6296 24.8837C41.7342 23.2507 38.8082 23.2839 37.3745 23.5296C31.3211 24.6046 25.2829 25.7044 19.2198 26.8194C18.3586 26.9708 17.2693 27.2786 16.6112 27.902C16.1709 28.3242 15.8325 29.0248 16.201 29.6002C17.2155 31.1774 20.0581 31.3143 21.6559 31.0025L21.6958 31.0122Z" fill="#0078FF"/>
<path d="M24.6636 48.7505C29.0652 49.3486 33.4869 49.9516 37.8933 50.5298C38.9412 50.6561 40.1669 50.5716 41.1563 50.2397C41.753 50.0455 42.8161 49.5834 43.0801 48.9282C43.7542 47.1881 41.2217 46.5551 40.0388 46.3751C35.6517 45.717 31.2549 45.0989 26.8532 44.5007C25.7902 44.3496 24.5149 44.4645 23.5007 44.8115C22.904 45.0057 21.7961 45.4781 21.5225 46.1732C20.8387 47.9533 23.4263 48.6207 24.634 48.7856L24.6636 48.7505Z" fill="#0078FF"/>
</g>
<defs>
<clipPath id="clip0_1013_672">
<rect width="43.3269" height="44.0669" fill="white" transform="translate(10.3477) rotate(13.5812)"/>
</clipPath>
</defs>
</svg>
